<svg width="24" height="25" viewBox="0 0 24 25" fill="none" xmlns="http://www.w3.org/2000/svg">
<g id="add_notes">
<mask id="mask0_533_625" style="mask-type:alpha" maskUnits="userSpaceOnUse" x="0" y="0" width="24" height="25">
<rect id="Bounding box" y="0.12207" width="24" height="24" fill="#D9D9D9"/>
</mask>
<g mask="url(#mask0_533_625)">
<path id="add_notes_2" d="M5.61538 20.1221C5.17114 20.1221 4.79086 19.9639 4.47453 19.6475C4.15818 19.3312 4 18.9509 4 18.5067V5.73745C4 5.29321 4.15818 4.91293 4.47453 4.5966C4.79086 4.28025 5.17114 4.12207 5.61538 4.12207H18.3846C18.8289 4.12207 19.2091 4.28025 19.5255 4.5966C19.8418 4.91293 20 5.29321 20 5.73745V11.6874C19.8244 11.6272 19.6564 11.5782 19.4962 11.5403C19.3359 11.5025 19.1705 11.465 19 11.4278V5.73745C19 5.58361 18.9359 5.44259 18.8077 5.31437C18.6795 5.18617 18.5385 5.12207 18.3846 5.12207H5.61538C5.46154 5.12207 5.32052 5.18617 5.1923 5.31437C5.0641 5.44259 5 5.58361 5 5.73745V18.5067C5 18.6605 5.0641 18.8016 5.1923 18.9298C5.32052 19.058 5.46154 19.1221 5.61538 19.1221H11.2808C11.3051 19.3093 11.3362 19.483 11.3741 19.6432C11.4119 19.8035 11.4609 19.9631 11.5212 20.1221H5.61538ZM5 19.1221V5.12207V11.4278V11.3528V19.1221ZM7.5 15.892C7.5 16.0338 7.54792 16.1525 7.64375 16.248C7.73958 16.3435 7.85833 16.3913 8 16.3913H11.4596C11.4968 16.2208 11.5471 16.0554 11.6106 15.8951C11.674 15.7349 11.7404 15.5669 11.8096 15.3913H8C7.85833 15.3913 7.73958 15.4393 7.64375 15.5352C7.54792 15.6312 7.5 15.7501 7.5 15.892ZM7.5 12.1227C7.5 12.2646 7.54792 12.3833 7.64375 12.4788C7.73958 12.5743 7.85833 12.6221 8 12.6221H14.0808C14.409 12.3913 14.7324 12.1958 15.051 12.0355C15.3696 11.8753 15.7115 11.7496 16.0769 11.6586C16.0019 11.6424 15.9186 11.6322 15.8269 11.6281C15.7353 11.6241 15.6519 11.6221 15.5769 11.6221H8C7.85833 11.6221 7.73958 11.6701 7.64375 11.766C7.54792 11.862 7.5 11.9809 7.5 12.1227ZM7.5 8.35352C7.5 8.49537 7.54792 8.61405 7.64375 8.70957C7.73958 8.80509 7.85833 8.85285 8 8.85285H16C16.1417 8.85285 16.2604 8.80486 16.3562 8.7089C16.4521 8.61293 16.5 8.49402 16.5 8.35217C16.5 8.2103 16.4521 8.09161 16.3562 7.9961C16.2604 7.9006 16.1417 7.85285 16 7.85285H8C7.85833 7.85285 7.73958 7.90082 7.64375 7.99677C7.54792 8.09274 7.5 8.21165 7.5 8.35352ZM18 22.2375C16.8859 22.2375 15.9407 21.8493 15.1644 21.073C14.3881 20.2968 14 19.3516 14 18.2374C14 17.1233 14.3881 16.1782 15.1644 15.4019C15.9407 14.6256 16.8859 14.2374 18 14.2374C19.1141 14.2374 20.0593 14.6256 20.8356 15.4019C21.6119 16.1782 22 17.1233 22 18.2374C22 19.3516 21.6119 20.2968 20.8356 21.073C20.0593 21.8493 19.1141 22.2375 18 22.2375ZM17.6154 18.6221V20.7374C17.6154 20.84 17.6538 20.9298 17.7308 21.0067C17.8077 21.0836 17.8974 21.1221 18 21.1221C18.1026 21.1221 18.1923 21.0836 18.2692 21.0067C18.3462 20.9298 18.3846 20.84 18.3846 20.7374V18.6221H20.5C20.6026 18.6221 20.6923 18.5836 20.7692 18.5067C20.8462 18.4298 20.8846 18.34 20.8846 18.2374C20.8846 18.1349 20.8462 18.0452 20.7692 17.9682C20.6923 17.8913 20.6026 17.8528 20.5 17.8528H18.3846V15.7374C18.3846 15.6349 18.3462 15.5451 18.2692 15.4682C18.1923 15.3913 18.1026 15.3528 18 15.3528C17.8974 15.3528 17.8077 15.3913 17.7308 15.4682C17.6538 15.5451 17.6154 15.6349 17.6154 15.7374V17.8528H15.5C15.3974 17.8528 15.3077 17.8913 15.2308 17.9682C15.1538 18.0452 15.1154 18.1349 15.1154 18.2374C15.1154 18.34 15.1538 18.4298 15.2308 18.5067C15.3077 18.5836 15.3974 18.6221 15.5 18.6221H17.6154Z" fill="#7D2C7D"/>
</g>
</g>
</svg>
