<svg width="24" height="24" viewBox="0 0 24 24" fill="none" xmlns="http://www.w3.org/2000/svg">
<g id="data_check">
<mask id="mask0_533_639" style="mask-type:alpha" maskUnits="userSpaceOnUse" x="0" y="0" width="24" height="24">
<rect id="Bounding box" width="24" height="24" fill="#D9D9D9"/>
</mask>
<g mask="url(#mask0_533_639)">
<path id="data_check_2" d="M15.3 8.97885L14.1481 7.84615C14.0737 7.7718 13.9859 7.73237 13.8846 7.72787C13.7833 7.72339 13.6891 7.76474 13.6019 7.85193C13.5147 7.93911 13.4712 8.03013 13.4712 8.125C13.4712 8.21987 13.5147 8.31089 13.6019 8.39807L14.7346 9.51155C14.8962 9.67308 15.0846 9.75385 15.3 9.75385C15.5154 9.75385 15.7038 9.67308 15.8654 9.51155L18.3981 6.97307C18.4724 6.89872 18.5128 6.81091 18.5192 6.70963C18.5256 6.60834 18.4853 6.51411 18.3981 6.42693C18.3109 6.33974 18.2199 6.29615 18.125 6.29615C18.0301 6.29615 17.9391 6.33974 17.8519 6.42693L15.3 8.97885ZM4.5 19.5C4.35833 19.5 4.23958 19.452 4.14375 19.3561C4.04792 19.2601 4 19.1412 4 18.9993C4 18.8575 4.04792 18.7388 4.14375 18.6433C4.23958 18.5478 4.35833 18.5 4.5 18.5H14.5C14.6417 18.5 14.7604 18.548 14.8562 18.644C14.9521 18.7399 15 18.8588 15 19.0007C15 19.1425 14.9521 19.2612 14.8562 19.3567C14.7604 19.4522 14.6417 19.5 14.5 19.5H4.5ZM16.0029 12.5C14.7586 12.5 13.6971 12.0615 12.8183 11.1846C11.9394 10.3076 11.5 9.24707 11.5 8.00285C11.5 6.75863 11.9385 5.69711 12.8154 4.81828C13.6924 3.93943 14.7529 3.5 15.9971 3.5C17.2414 3.5 18.3029 3.93848 19.1817 4.81543C20.0606 5.69236 20.5 6.75293 20.5 7.99715C20.5 9.24137 20.0615 10.3029 19.1846 11.1817C18.3076 12.0606 17.2471 12.5 16.0029 12.5ZM4.5 11.5C4.35833 11.5 4.23958 11.452 4.14375 11.3561C4.04792 11.2601 4 11.1412 4 10.9993C4 10.8575 4.04792 10.7388 4.14375 10.6433C4.23958 10.5478 4.35833 10.5 4.5 10.5H9.37692C9.44231 10.6872 9.51474 10.8609 9.59423 11.0212C9.67373 11.1814 9.76411 11.341 9.86538 11.5H4.5ZM4.5 15.5C4.35833 15.5 4.23958 15.452 4.14375 15.3561C4.04792 15.2601 4 15.1412 4 14.9993C4 14.8575 4.04792 14.7388 4.14375 14.6433C4.23958 14.5478 4.35833 14.5 4.5 14.5H13.2654C13.5333 14.618 13.8135 14.7208 14.1058 14.8087C14.3981 14.8965 14.6961 14.9609 15 15.0019V15.0192C15 15.1487 14.9521 15.2612 14.8562 15.3567C14.7604 15.4522 14.6417 15.5 14.5 15.5H4.5Z" fill="#260D26"/>
</g>
</g>
</svg>
